# File created by Blade
# Date/Time:  Thu Sep 25 17:14:50 2014
# Frame Rate: 120.000 fps
#------------------------------------------------------
:FULLY-SPECIFIED
:DEGREES
334
root 52.713195 33.297679 -2.098813 176.346716 -83.088733 -163.317261
Spine -8.873987 9.812984 4.992775
Head 6.590985 -7.617064 -1.486146
LeftShoulder -10.642745 7.014016 37.815544
LeftArm 48.338664 -63.233045 -41.914564
LeftForeArm -29.372595 -0.000000 27.606857
LeftHand -16.616073 -0.000000 3.249779
LeftHandThumb1 -26.253704 0.000000 33.147579
RightShoulder -19.698663 28.939894 -57.691009
RightArm 33.326651 50.862588 52.952804
RightForeArm 25.404066 -0.000000 45.238174
RightHand -2.443068 -0.000000 -14.563206
RightHandThumb1 -24.326973 -0.000000 -32.862282
LeftUpLeg -18.548838 12.925338 -4.328713
LeftLeg 19.403938 -0.000000 -0.000000
LeftFoot -40.758354 11.067260 -63.314484
LeftToeBase 67.699193 -0.000000 -0.000000
RightUpLeg -8.485514 -14.062480 5.972347
RightLeg 6.383470 -0.000000 -0.000000
RightFoot -13.470765 -0.438192 -6.517604
RightToeBase 0.667391 -0.000000 -0.000000
335
root 52.799223 33.262642 -2.170637 172.699387 -82.879269 -159.779088
Spine -8.653672 10.206833 5.735754
Head 6.336502 -7.567957 -2.005641
LeftShoulder -10.550396 4.788550 38.778842
LeftArm 46.032069 -61.967063 -40.485534
LeftForeArm -28.933565 -0.000000 28.138916
LeftHand -16.873359 -0.000000 3.350687
LeftHandThumb1 -26.253704 0.000000 33.147579
RightShoulder -19.740467 29.298144 -58.225277
RightArm 34.512980 50.906053 53.492642
RightForeArm 25.527533 -0.000000 44.916276
RightHand -2.532837 -0.000000 -15.814543
RightHandThumb1 -24.326973 -0.000000 -32.862282
LeftUpLeg -20.309569 13.393443 -3.746596
LeftLeg 23.048654 -0.000000 -0.000000
LeftFoot -40.352895 10.092801 -64.018905
LeftToeBase 66.547069 -0.000000 -0.000000
RightUpLeg -8.201870 -13.469178 6.463981
RightLeg 5.735425 -0.000000 -0.000000
RightFoot -13.261906 -0.462717 -6.339026
RightToeBase -0.322274 -0.000000 0.000000
336
root 52.884221 33.232279 -2.246607 168.421516 -82.669902 -155.629300
Spine -8.402607 10.537530 6.606079
Head 6.124292 -7.539430 -2.501675
LeftShoulder -10.708074 4.480580 38.918531
LeftArm 47.107560 -62.096064 -41.306049
LeftForeArm -28.544501 -0.000000 28.274963
LeftHand -17.017068 -0.000000 3.435944
LeftHandThumb1 -26.253704 0.000000 33.147579
RightShoulder -19.788521 29.595788 -58.727904
RightArm 35.794810 50.938308 54.153891
RightForeArm 25.647307 -0.000000 44.663301
RightHand -2.638781 -0.000000 -15.984845
RightHandThumb1 -24.326973 -0.000000 -32.862282
LeftUpLeg -21.989619 13.869600 -3.079457
LeftLeg 26.466614 -0.000000 -0.000000
LeftFoot -39.616253 9.540276 -64.613999
LeftToeBase 64.628883 -0.000000 -0.000000
RightUpLeg -8.121843 -13.396813 7.244140
RightLeg 5.377819 -0.000000 -0.000000
RightFoot -12.949494 -0.716491 -6.024254
RightToeBase -0.534789 -0.000000 0.000000
337
root 52.968537 33.208581 -2.300942 165.518625 -82.570386 -152.856622
Spine -8.164362 10.752871 7.264587
Head 6.000254 -7.413650 -2.877823
LeftShoulder -10.897012 4.231036 39.021154
LeftArm 47.826307 -62.061860 -41.613496
LeftForeArm -28.445833 -0.000000 28.390408
LeftHand -17.066011 -0.000000 3.696771
LeftHandThumb1 -26.253704 0.000000 33.147579
RightShoulder -19.871659 29.832054 -59.169220
RightArm 37.095494 50.893766 54.873051
RightForeArm 25.702533 -0.000000 44.525357
RightHand -2.787962 -0.000000 -16.169016
RightHandThumb1 -24.326973 -0.000000 -32.862282
LeftUpLeg -23.760779 14.523217 -2.779750
LeftLeg 29.828342 -0.000000 -0.000000
LeftFoot -38.075579 8.815048 -61.109003
LeftToeBase 58.019199 -0.000000 -0.000000
RightUpLeg -8.074167 -13.272969 7.703592
RightLeg 5.145737 -0.000000 -0.000000
RightFoot -12.861858 -0.659641 -5.403864
RightToeBase -0.341514 -0.000000 0.000000
